<?xml version="1.0" standalone="no"?>
<!DOCTYPE svg PUBLIC "-//W3C//DTD SVG 20010904//EN"
 "http://www.w3.org/TR/2001/REC-SVG-20010904/DTD/svg10.dtd">
<svg version="1.0" xmlns="http://www.w3.org/2000/svg"
 width="1067.000000pt" height="1067.000000pt" viewBox="0 0 1067.000000 1067.000000"
 preserveAspectRatio="xMidYMid meet">
<metadata>
Created by potrace 1.14, written by Peter Selinger 2001-2017
</metadata>
<g transform="translate(0.000000,1067.000000) scale(0.100000,-0.100000)"
fill="#000000" stroke="none">
<path d="M5549 9825 c-228 -42 -436 -167 -586 -353 l-18 -22 -1115 -1 c-668 0
-1139 -4 -1175 -10 -33 -5 -104 -25 -158 -43 -241 -83 -446 -266 -553 -496
-39 -84 -51 -114 -60 -152 -1 -5 -3 -10 -4 -13 -4 -7 -5 -15 -14 -65 -5 -25
-10 -54 -13 -65 -2 -11 -4 -980 -4 -2152 -1 -1446 -4 -2135 -11 -2139 -6 -4
-103 -8 -217 -9 -113 -1 -221 -7 -239 -13 -94 -31 -185 -114 -230 -210 l-27
-57 -3 -353 c-3 -300 -1 -361 13 -408 14 -49 14 -59 0 -107 -13 -43 -15 -109
-12 -412 l3 -360 31 -60 c60 -113 150 -184 259 -204 32 -6 147 -11 256 -11
l198 0 1 -262 c0 -145 3 -276 5 -293 14 -89 96 -204 185 -261 21 -13 43 -33
49 -45 12 -21 31 -45 89 -111 48 -55 175 -148 251 -185 173 -82 251 -94 596
-90 154 2 295 8 314 12 49 12 76 11 145 -8 53 -14 166 -15 980 -14 521 2 933
-1 950 -7 44 -13 786 -16 865 -3 81 13 125 13 170 2 19 -5 393 -9 830 -9 l795
1 58 23 c118 45 214 152 237 266 8 36 10 170 8 397 -4 328 -5 344 -26 390 -20
44 -21 51 -7 77 8 15 17 46 21 69 4 23 10 43 14 46 4 2 103 5 221 5 186 1 222
4 274 22 118 39 203 128 239 248 13 44 16 111 16 376 0 320 -7 404 -36 449
-11 17 -9 31 11 89 22 67 23 80 24 385 0 176 -5 340 -10 371 -22 112 -98 212
-204 264 -74 36 -98 39 -367 39 -131 0 -238 3 -238 7 0 11 21 72 36 107 8 17
14 34 14 39 0 6 70 195 130 349 10 28 62 167 115 310 53 143 105 283 115 310
40 104 84 223 235 630 86 231 161 434 168 450 6 17 12 32 13 35 0 3 5 16 11
30 10 23 163 436 255 685 22 61 46 124 53 140 7 17 22 62 33 100 124 429 -68
891 -459 1108 -36 20 -230 98 -430 173 -540 201 -627 233 -709 265 -135 51
-983 366 -1050 389 -36 13 -69 27 -75 30 -5 4 -35 15 -65 25 -30 10 -68 23
-85 30 -16 7 -100 39 -185 70 -85 31 -165 61 -178 66 -22 9 -169 63 -257 95
-115 41 -326 54 -466 29z"/>
</g>
</svg>
